<mxfile host="app.diagrams.net" modified="2022-04-25T08:29:56.421Z" agent="5.0 (Windows NT 10.0; Win64; x64) AppleWebKit/537.36 (KHTML, like Gecko) Chrome/100.0.4896.127 Safari/537.36" etag="ltCaxWiZ4LhXXAMhgns1" version="17.4.6" type="github">
  <diagram id="Twf_pXJN-Fd1z-aPCLBK" name="Page-1">
    <mxGraphModel dx="3816" dy="1540" grid="1" gridSize="10" guides="1" tooltips="1" connect="1" arrows="1" fold="1" page="1" pageScale="1" pageWidth="850" pageHeight="1100" background="none" math="0" shadow="0">
      <root>
        <mxCell id="0" />
        <mxCell id="1" parent="0" />
        <mxCell id="yiRNXyfWjRyLdYWrjQi4-3" value="doctor" style="shape=table;startSize=30;container=1;collapsible=1;childLayout=tableLayout;fixedRows=1;rowLines=0;fontStyle=1;align=center;resizeLast=1;strokeColor=#8FA9FF;" vertex="1" parent="1">
          <mxGeometry x="-780" y="20" width="180" height="220" as="geometry" />
        </mxCell>
        <mxCell id="yiRNXyfWjRyLdYWrjQi4-4" value="" style="shape=tableRow;horizontal=0;startSize=0;swimlaneHead=0;swimlaneBody=0;fillColor=none;collapsible=0;dropTarget=0;points=[[0,0.5],[1,0.5]];portConstraint=eastwest;top=0;left=0;right=0;bottom=1;strokeColor=#8FA9FF;" vertex="1" parent="yiRNXyfWjRyLdYWrjQi4-3">
          <mxGeometry y="30" width="180" height="30" as="geometry" />
        </mxCell>
        <mxCell id="yiRNXyfWjRyLdYWrjQi4-5" value="PK" style="shape=partialRectangle;connectable=0;fillColor=none;top=0;left=0;bottom=0;right=0;fontStyle=1;overflow=hidden;strokeColor=#8FA9FF;" vertex="1" parent="yiRNXyfWjRyLdYWrjQi4-4">
          <mxGeometry width="30" height="30" as="geometry">
            <mxRectangle width="30" height="30" as="alternateBounds" />
          </mxGeometry>
        </mxCell>
        <mxCell id="yiRNXyfWjRyLdYWrjQi4-6" value="idNumber" style="shape=partialRectangle;connectable=0;fillColor=none;top=0;left=0;bottom=0;right=0;align=left;spacingLeft=6;fontStyle=5;overflow=hidden;strokeColor=#8FA9FF;" vertex="1" parent="yiRNXyfWjRyLdYWrjQi4-4">
          <mxGeometry x="30" width="150" height="30" as="geometry">
            <mxRectangle width="150" height="30" as="alternateBounds" />
          </mxGeometry>
        </mxCell>
        <mxCell id="yiRNXyfWjRyLdYWrjQi4-7" value="" style="shape=tableRow;horizontal=0;startSize=0;swimlaneHead=0;swimlaneBody=0;fillColor=none;collapsible=0;dropTarget=0;points=[[0,0.5],[1,0.5]];portConstraint=eastwest;top=0;left=0;right=0;bottom=0;strokeColor=#8FA9FF;" vertex="1" parent="yiRNXyfWjRyLdYWrjQi4-3">
          <mxGeometry y="60" width="180" height="30" as="geometry" />
        </mxCell>
        <mxCell id="yiRNXyfWjRyLdYWrjQi4-8" value="" style="shape=partialRectangle;connectable=0;fillColor=none;top=0;left=0;bottom=0;right=0;editable=1;overflow=hidden;strokeColor=#8FA9FF;" vertex="1" parent="yiRNXyfWjRyLdYWrjQi4-7">
          <mxGeometry width="30" height="30" as="geometry">
            <mxRectangle width="30" height="30" as="alternateBounds" />
          </mxGeometry>
        </mxCell>
        <mxCell id="yiRNXyfWjRyLdYWrjQi4-9" value="address" style="shape=partialRectangle;connectable=0;fillColor=none;top=0;left=0;bottom=0;right=0;align=left;spacingLeft=6;overflow=hidden;strokeColor=#8FA9FF;" vertex="1" parent="yiRNXyfWjRyLdYWrjQi4-7">
          <mxGeometry x="30" width="150" height="30" as="geometry">
            <mxRectangle width="150" height="30" as="alternateBounds" />
          </mxGeometry>
        </mxCell>
        <mxCell id="yiRNXyfWjRyLdYWrjQi4-10" value="" style="shape=tableRow;horizontal=0;startSize=0;swimlaneHead=0;swimlaneBody=0;fillColor=none;collapsible=0;dropTarget=0;points=[[0,0.5],[1,0.5]];portConstraint=eastwest;top=0;left=0;right=0;bottom=0;strokeColor=#8FA9FF;" vertex="1" parent="yiRNXyfWjRyLdYWrjQi4-3">
          <mxGeometry y="90" width="180" height="30" as="geometry" />
        </mxCell>
        <mxCell id="yiRNXyfWjRyLdYWrjQi4-11" value="" style="shape=partialRectangle;connectable=0;fillColor=none;top=0;left=0;bottom=0;right=0;editable=1;overflow=hidden;strokeColor=#8FA9FF;" vertex="1" parent="yiRNXyfWjRyLdYWrjQi4-10">
          <mxGeometry width="30" height="30" as="geometry">
            <mxRectangle width="30" height="30" as="alternateBounds" />
          </mxGeometry>
        </mxCell>
        <mxCell id="yiRNXyfWjRyLdYWrjQi4-12" value="qualification" style="shape=partialRectangle;connectable=0;fillColor=none;top=0;left=0;bottom=0;right=0;align=left;spacingLeft=6;overflow=hidden;strokeColor=#8FA9FF;" vertex="1" parent="yiRNXyfWjRyLdYWrjQi4-10">
          <mxGeometry x="30" width="150" height="30" as="geometry">
            <mxRectangle width="150" height="30" as="alternateBounds" />
          </mxGeometry>
        </mxCell>
        <mxCell id="yiRNXyfWjRyLdYWrjQi4-13" value="" style="shape=tableRow;horizontal=0;startSize=0;swimlaneHead=0;swimlaneBody=0;fillColor=none;collapsible=0;dropTarget=0;points=[[0,0.5],[1,0.5]];portConstraint=eastwest;top=0;left=0;right=0;bottom=0;strokeColor=#8FA9FF;" vertex="1" parent="yiRNXyfWjRyLdYWrjQi4-3">
          <mxGeometry y="120" width="180" height="30" as="geometry" />
        </mxCell>
        <mxCell id="yiRNXyfWjRyLdYWrjQi4-14" value="" style="shape=partialRectangle;connectable=0;fillColor=none;top=0;left=0;bottom=0;right=0;editable=1;overflow=hidden;strokeColor=#8FA9FF;" vertex="1" parent="yiRNXyfWjRyLdYWrjQi4-13">
          <mxGeometry width="30" height="30" as="geometry">
            <mxRectangle width="30" height="30" as="alternateBounds" />
          </mxGeometry>
        </mxCell>
        <mxCell id="yiRNXyfWjRyLdYWrjQi4-15" value="dob" style="shape=partialRectangle;connectable=0;fillColor=none;top=0;left=0;bottom=0;right=0;align=left;spacingLeft=6;overflow=hidden;strokeColor=#8FA9FF;" vertex="1" parent="yiRNXyfWjRyLdYWrjQi4-13">
          <mxGeometry x="30" width="150" height="30" as="geometry">
            <mxRectangle width="150" height="30" as="alternateBounds" />
          </mxGeometry>
        </mxCell>
        <mxCell id="yiRNXyfWjRyLdYWrjQi4-22" value="" style="shape=tableRow;horizontal=0;startSize=0;swimlaneHead=0;swimlaneBody=0;fillColor=none;collapsible=0;dropTarget=0;points=[[0,0.5],[1,0.5]];portConstraint=eastwest;top=0;left=0;right=0;bottom=0;strokeColor=#8FA9FF;" vertex="1" parent="yiRNXyfWjRyLdYWrjQi4-3">
          <mxGeometry y="150" width="180" height="30" as="geometry" />
        </mxCell>
        <mxCell id="yiRNXyfWjRyLdYWrjQi4-23" value="" style="shape=partialRectangle;connectable=0;fillColor=none;top=0;left=0;bottom=0;right=0;editable=1;overflow=hidden;strokeColor=#8FA9FF;" vertex="1" parent="yiRNXyfWjRyLdYWrjQi4-22">
          <mxGeometry width="30" height="30" as="geometry">
            <mxRectangle width="30" height="30" as="alternateBounds" />
          </mxGeometry>
        </mxCell>
        <mxCell id="yiRNXyfWjRyLdYWrjQi4-24" value="name" style="shape=partialRectangle;connectable=0;fillColor=none;top=0;left=0;bottom=0;right=0;align=left;spacingLeft=6;overflow=hidden;strokeColor=#8FA9FF;" vertex="1" parent="yiRNXyfWjRyLdYWrjQi4-22">
          <mxGeometry x="30" width="150" height="30" as="geometry">
            <mxRectangle width="150" height="30" as="alternateBounds" />
          </mxGeometry>
        </mxCell>
        <mxCell id="yiRNXyfWjRyLdYWrjQi4-25" value="" style="shape=tableRow;horizontal=0;startSize=0;swimlaneHead=0;swimlaneBody=0;fillColor=none;collapsible=0;dropTarget=0;points=[[0,0.5],[1,0.5]];portConstraint=eastwest;top=0;left=0;right=0;bottom=0;strokeColor=#8FA9FF;" vertex="1" parent="yiRNXyfWjRyLdYWrjQi4-3">
          <mxGeometry y="180" width="180" height="30" as="geometry" />
        </mxCell>
        <mxCell id="yiRNXyfWjRyLdYWrjQi4-26" value="" style="shape=partialRectangle;connectable=0;fillColor=none;top=0;left=0;bottom=0;right=0;editable=1;overflow=hidden;strokeColor=#8FA9FF;" vertex="1" parent="yiRNXyfWjRyLdYWrjQi4-25">
          <mxGeometry width="30" height="30" as="geometry">
            <mxRectangle width="30" height="30" as="alternateBounds" />
          </mxGeometry>
        </mxCell>
        <mxCell id="yiRNXyfWjRyLdYWrjQi4-27" value="sex" style="shape=partialRectangle;connectable=0;fillColor=none;top=0;left=0;bottom=0;right=0;align=left;spacingLeft=6;overflow=hidden;strokeColor=#8FA9FF;" vertex="1" parent="yiRNXyfWjRyLdYWrjQi4-25">
          <mxGeometry x="30" width="150" height="30" as="geometry">
            <mxRectangle width="150" height="30" as="alternateBounds" />
          </mxGeometry>
        </mxCell>
        <mxCell id="yiRNXyfWjRyLdYWrjQi4-28" value="Medicine" style="shape=table;startSize=30;container=1;collapsible=1;childLayout=tableLayout;fixedRows=1;rowLines=0;fontStyle=1;align=center;resizeLast=1;strokeColor=#8FA9FF;" vertex="1" parent="1">
          <mxGeometry x="-530" y="20" width="180" height="220" as="geometry" />
        </mxCell>
        <mxCell id="yiRNXyfWjRyLdYWrjQi4-29" value="" style="shape=tableRow;horizontal=0;startSize=0;swimlaneHead=0;swimlaneBody=0;fillColor=none;collapsible=0;dropTarget=0;points=[[0,0.5],[1,0.5]];portConstraint=eastwest;top=0;left=0;right=0;bottom=1;strokeColor=#8FA9FF;" vertex="1" parent="yiRNXyfWjRyLdYWrjQi4-28">
          <mxGeometry y="30" width="180" height="30" as="geometry" />
        </mxCell>
        <mxCell id="yiRNXyfWjRyLdYWrjQi4-30" value="PK" style="shape=partialRectangle;connectable=0;fillColor=none;top=0;left=0;bottom=0;right=0;fontStyle=1;overflow=hidden;strokeColor=#8FA9FF;" vertex="1" parent="yiRNXyfWjRyLdYWrjQi4-29">
          <mxGeometry width="20" height="30" as="geometry">
            <mxRectangle width="20" height="30" as="alternateBounds" />
          </mxGeometry>
        </mxCell>
        <mxCell id="yiRNXyfWjRyLdYWrjQi4-31" value="medCode" style="shape=partialRectangle;connectable=0;fillColor=none;top=0;left=0;bottom=0;right=0;align=left;spacingLeft=6;fontStyle=5;overflow=hidden;strokeColor=#8FA9FF;" vertex="1" parent="yiRNXyfWjRyLdYWrjQi4-29">
          <mxGeometry x="20" width="160" height="30" as="geometry">
            <mxRectangle width="160" height="30" as="alternateBounds" />
          </mxGeometry>
        </mxCell>
        <mxCell id="yiRNXyfWjRyLdYWrjQi4-32" value="" style="shape=tableRow;horizontal=0;startSize=0;swimlaneHead=0;swimlaneBody=0;fillColor=none;collapsible=0;dropTarget=0;points=[[0,0.5],[1,0.5]];portConstraint=eastwest;top=0;left=0;right=0;bottom=0;strokeColor=#8FA9FF;" vertex="1" parent="yiRNXyfWjRyLdYWrjQi4-28">
          <mxGeometry y="60" width="180" height="30" as="geometry" />
        </mxCell>
        <mxCell id="yiRNXyfWjRyLdYWrjQi4-33" value="" style="shape=partialRectangle;connectable=0;fillColor=none;top=0;left=0;bottom=0;right=0;editable=1;overflow=hidden;strokeColor=#8FA9FF;" vertex="1" parent="yiRNXyfWjRyLdYWrjQi4-32">
          <mxGeometry width="20" height="30" as="geometry">
            <mxRectangle width="20" height="30" as="alternateBounds" />
          </mxGeometry>
        </mxCell>
        <mxCell id="yiRNXyfWjRyLdYWrjQi4-34" value="Name     varchar" style="shape=partialRectangle;connectable=0;fillColor=none;top=0;left=0;bottom=0;right=0;align=left;spacingLeft=6;overflow=hidden;strokeColor=#8FA9FF;" vertex="1" parent="yiRNXyfWjRyLdYWrjQi4-32">
          <mxGeometry x="20" width="160" height="30" as="geometry">
            <mxRectangle width="160" height="30" as="alternateBounds" />
          </mxGeometry>
        </mxCell>
        <mxCell id="yiRNXyfWjRyLdYWrjQi4-35" value="" style="shape=tableRow;horizontal=0;startSize=0;swimlaneHead=0;swimlaneBody=0;fillColor=none;collapsible=0;dropTarget=0;points=[[0,0.5],[1,0.5]];portConstraint=eastwest;top=0;left=0;right=0;bottom=0;strokeColor=#8FA9FF;" vertex="1" parent="yiRNXyfWjRyLdYWrjQi4-28">
          <mxGeometry y="90" width="180" height="30" as="geometry" />
        </mxCell>
        <mxCell id="yiRNXyfWjRyLdYWrjQi4-36" value="" style="shape=partialRectangle;connectable=0;fillColor=none;top=0;left=0;bottom=0;right=0;editable=1;overflow=hidden;strokeColor=#8FA9FF;" vertex="1" parent="yiRNXyfWjRyLdYWrjQi4-35">
          <mxGeometry width="20" height="30" as="geometry">
            <mxRectangle width="20" height="30" as="alternateBounds" />
          </mxGeometry>
        </mxCell>
        <mxCell id="yiRNXyfWjRyLdYWrjQi4-37" value="price       varchar" style="shape=partialRectangle;connectable=0;fillColor=none;top=0;left=0;bottom=0;right=0;align=left;spacingLeft=6;overflow=hidden;strokeColor=#8FA9FF;" vertex="1" parent="yiRNXyfWjRyLdYWrjQi4-35">
          <mxGeometry x="20" width="160" height="30" as="geometry">
            <mxRectangle width="160" height="30" as="alternateBounds" />
          </mxGeometry>
        </mxCell>
        <mxCell id="yiRNXyfWjRyLdYWrjQi4-38" value="" style="shape=tableRow;horizontal=0;startSize=0;swimlaneHead=0;swimlaneBody=0;fillColor=none;collapsible=0;dropTarget=0;points=[[0,0.5],[1,0.5]];portConstraint=eastwest;top=0;left=0;right=0;bottom=0;strokeColor=#8FA9FF;" vertex="1" parent="yiRNXyfWjRyLdYWrjQi4-28">
          <mxGeometry y="120" width="180" height="30" as="geometry" />
        </mxCell>
        <mxCell id="yiRNXyfWjRyLdYWrjQi4-39" value="" style="shape=partialRectangle;connectable=0;fillColor=none;top=0;left=0;bottom=0;right=0;editable=1;overflow=hidden;strokeColor=#8FA9FF;" vertex="1" parent="yiRNXyfWjRyLdYWrjQi4-38">
          <mxGeometry width="20" height="30" as="geometry">
            <mxRectangle width="20" height="30" as="alternateBounds" />
          </mxGeometry>
        </mxCell>
        <mxCell id="yiRNXyfWjRyLdYWrjQi4-40" value="type        varchar" style="shape=partialRectangle;connectable=0;fillColor=none;top=0;left=0;bottom=0;right=0;align=left;spacingLeft=6;overflow=hidden;strokeColor=#8FA9FF;" vertex="1" parent="yiRNXyfWjRyLdYWrjQi4-38">
          <mxGeometry x="20" width="160" height="30" as="geometry">
            <mxRectangle width="160" height="30" as="alternateBounds" />
          </mxGeometry>
        </mxCell>
        <mxCell id="yiRNXyfWjRyLdYWrjQi4-41" value="" style="shape=tableRow;horizontal=0;startSize=0;swimlaneHead=0;swimlaneBody=0;fillColor=none;collapsible=0;dropTarget=0;points=[[0,0.5],[1,0.5]];portConstraint=eastwest;top=0;left=0;right=0;bottom=0;strokeColor=#8FA9FF;" vertex="1" parent="yiRNXyfWjRyLdYWrjQi4-28">
          <mxGeometry y="150" width="180" height="30" as="geometry" />
        </mxCell>
        <mxCell id="yiRNXyfWjRyLdYWrjQi4-42" value="" style="shape=partialRectangle;connectable=0;fillColor=none;top=0;left=0;bottom=0;right=0;editable=1;overflow=hidden;strokeColor=#8FA9FF;" vertex="1" parent="yiRNXyfWjRyLdYWrjQi4-41">
          <mxGeometry width="20" height="30" as="geometry">
            <mxRectangle width="20" height="30" as="alternateBounds" />
          </mxGeometry>
        </mxCell>
        <mxCell id="yiRNXyfWjRyLdYWrjQi4-43" value="name       varchar" style="shape=partialRectangle;connectable=0;fillColor=none;top=0;left=0;bottom=0;right=0;align=left;spacingLeft=6;overflow=hidden;strokeColor=#8FA9FF;" vertex="1" parent="yiRNXyfWjRyLdYWrjQi4-41">
          <mxGeometry x="20" width="160" height="30" as="geometry">
            <mxRectangle width="160" height="30" as="alternateBounds" />
          </mxGeometry>
        </mxCell>
        <mxCell id="yiRNXyfWjRyLdYWrjQi4-44" value="" style="shape=tableRow;horizontal=0;startSize=0;swimlaneHead=0;swimlaneBody=0;fillColor=none;collapsible=0;dropTarget=0;points=[[0,0.5],[1,0.5]];portConstraint=eastwest;top=0;left=0;right=0;bottom=0;strokeColor=#8FA9FF;" vertex="1" parent="yiRNXyfWjRyLdYWrjQi4-28">
          <mxGeometry y="180" width="180" height="30" as="geometry" />
        </mxCell>
        <mxCell id="yiRNXyfWjRyLdYWrjQi4-45" value="" style="shape=partialRectangle;connectable=0;fillColor=none;top=0;left=0;bottom=0;right=0;editable=1;overflow=hidden;strokeColor=#8FA9FF;" vertex="1" parent="yiRNXyfWjRyLdYWrjQi4-44">
          <mxGeometry width="20" height="30" as="geometry">
            <mxRectangle width="20" height="30" as="alternateBounds" />
          </mxGeometry>
        </mxCell>
        <mxCell id="yiRNXyfWjRyLdYWrjQi4-46" value="expiryDate  date" style="shape=partialRectangle;connectable=0;fillColor=none;top=0;left=0;bottom=0;right=0;align=left;spacingLeft=6;overflow=hidden;strokeColor=#8FA9FF;" vertex="1" parent="yiRNXyfWjRyLdYWrjQi4-44">
          <mxGeometry x="20" width="160" height="30" as="geometry">
            <mxRectangle width="160" height="30" as="alternateBounds" />
          </mxGeometry>
        </mxCell>
        <mxCell id="yiRNXyfWjRyLdYWrjQi4-47" value="Patient" style="shape=table;startSize=30;container=1;collapsible=1;childLayout=tableLayout;fixedRows=1;rowLines=0;fontStyle=1;align=center;resizeLast=1;strokeColor=#8FA9FF;" vertex="1" parent="1">
          <mxGeometry x="-530" y="270" width="180" height="180" as="geometry" />
        </mxCell>
        <mxCell id="yiRNXyfWjRyLdYWrjQi4-48" value="" style="shape=tableRow;horizontal=0;startSize=0;swimlaneHead=0;swimlaneBody=0;fillColor=none;collapsible=0;dropTarget=0;points=[[0,0.5],[1,0.5]];portConstraint=eastwest;top=0;left=0;right=0;bottom=1;strokeColor=#8FA9FF;" vertex="1" parent="yiRNXyfWjRyLdYWrjQi4-47">
          <mxGeometry y="30" width="180" height="20" as="geometry" />
        </mxCell>
        <mxCell id="yiRNXyfWjRyLdYWrjQi4-49" value="PK" style="shape=partialRectangle;connectable=0;fillColor=none;top=0;left=0;bottom=0;right=0;fontStyle=1;overflow=hidden;strokeColor=#8FA9FF;" vertex="1" parent="yiRNXyfWjRyLdYWrjQi4-48">
          <mxGeometry width="30" height="20" as="geometry">
            <mxRectangle width="30" height="20" as="alternateBounds" />
          </mxGeometry>
        </mxCell>
        <mxCell id="yiRNXyfWjRyLdYWrjQi4-50" value="patNumber" style="shape=partialRectangle;connectable=0;fillColor=none;top=0;left=0;bottom=0;right=0;align=left;spacingLeft=6;fontStyle=5;overflow=hidden;strokeColor=#8FA9FF;" vertex="1" parent="yiRNXyfWjRyLdYWrjQi4-48">
          <mxGeometry x="30" width="150" height="20" as="geometry">
            <mxRectangle width="150" height="20" as="alternateBounds" />
          </mxGeometry>
        </mxCell>
        <mxCell id="yiRNXyfWjRyLdYWrjQi4-51" value="" style="shape=tableRow;horizontal=0;startSize=0;swimlaneHead=0;swimlaneBody=0;fillColor=none;collapsible=0;dropTarget=0;points=[[0,0.5],[1,0.5]];portConstraint=eastwest;top=0;left=0;right=0;bottom=0;strokeColor=#8FA9FF;" vertex="1" parent="yiRNXyfWjRyLdYWrjQi4-47">
          <mxGeometry y="50" width="180" height="30" as="geometry" />
        </mxCell>
        <mxCell id="yiRNXyfWjRyLdYWrjQi4-52" value="" style="shape=partialRectangle;connectable=0;fillColor=none;top=0;left=0;bottom=0;right=0;editable=1;overflow=hidden;strokeColor=#8FA9FF;" vertex="1" parent="yiRNXyfWjRyLdYWrjQi4-51">
          <mxGeometry width="30" height="30" as="geometry">
            <mxRectangle width="30" height="30" as="alternateBounds" />
          </mxGeometry>
        </mxCell>
        <mxCell id="yiRNXyfWjRyLdYWrjQi4-53" value="Name    vachar" style="shape=partialRectangle;connectable=0;fillColor=none;top=0;left=0;bottom=0;right=0;align=left;spacingLeft=6;overflow=hidden;strokeColor=#8FA9FF;" vertex="1" parent="yiRNXyfWjRyLdYWrjQi4-51">
          <mxGeometry x="30" width="150" height="30" as="geometry">
            <mxRectangle width="150" height="30" as="alternateBounds" />
          </mxGeometry>
        </mxCell>
        <mxCell id="yiRNXyfWjRyLdYWrjQi4-54" value="" style="shape=tableRow;horizontal=0;startSize=0;swimlaneHead=0;swimlaneBody=0;fillColor=none;collapsible=0;dropTarget=0;points=[[0,0.5],[1,0.5]];portConstraint=eastwest;top=0;left=0;right=0;bottom=0;strokeColor=#8FA9FF;" vertex="1" parent="yiRNXyfWjRyLdYWrjQi4-47">
          <mxGeometry y="80" width="180" height="30" as="geometry" />
        </mxCell>
        <mxCell id="yiRNXyfWjRyLdYWrjQi4-55" value="" style="shape=partialRectangle;connectable=0;fillColor=none;top=0;left=0;bottom=0;right=0;editable=1;overflow=hidden;strokeColor=#8FA9FF;" vertex="1" parent="yiRNXyfWjRyLdYWrjQi4-54">
          <mxGeometry width="30" height="30" as="geometry">
            <mxRectangle width="30" height="30" as="alternateBounds" />
          </mxGeometry>
        </mxCell>
        <mxCell id="yiRNXyfWjRyLdYWrjQi4-56" value="dob        varchar" style="shape=partialRectangle;connectable=0;fillColor=none;top=0;left=0;bottom=0;right=0;align=left;spacingLeft=6;overflow=hidden;strokeColor=#8FA9FF;" vertex="1" parent="yiRNXyfWjRyLdYWrjQi4-54">
          <mxGeometry x="30" width="150" height="30" as="geometry">
            <mxRectangle width="150" height="30" as="alternateBounds" />
          </mxGeometry>
        </mxCell>
        <mxCell id="yiRNXyfWjRyLdYWrjQi4-57" value="" style="shape=tableRow;horizontal=0;startSize=0;swimlaneHead=0;swimlaneBody=0;fillColor=none;collapsible=0;dropTarget=0;points=[[0,0.5],[1,0.5]];portConstraint=eastwest;top=0;left=0;right=0;bottom=0;strokeColor=#8FA9FF;" vertex="1" parent="yiRNXyfWjRyLdYWrjQi4-47">
          <mxGeometry y="110" width="180" height="30" as="geometry" />
        </mxCell>
        <mxCell id="yiRNXyfWjRyLdYWrjQi4-58" value="" style="shape=partialRectangle;connectable=0;fillColor=none;top=0;left=0;bottom=0;right=0;editable=1;overflow=hidden;strokeColor=#8FA9FF;" vertex="1" parent="yiRNXyfWjRyLdYWrjQi4-57">
          <mxGeometry width="30" height="30" as="geometry">
            <mxRectangle width="30" height="30" as="alternateBounds" />
          </mxGeometry>
        </mxCell>
        <mxCell id="yiRNXyfWjRyLdYWrjQi4-59" value="sex        varchar" style="shape=partialRectangle;connectable=0;fillColor=none;top=0;left=0;bottom=0;right=0;align=left;spacingLeft=6;overflow=hidden;strokeColor=#8FA9FF;" vertex="1" parent="yiRNXyfWjRyLdYWrjQi4-57">
          <mxGeometry x="30" width="150" height="30" as="geometry">
            <mxRectangle width="150" height="30" as="alternateBounds" />
          </mxGeometry>
        </mxCell>
        <mxCell id="yiRNXyfWjRyLdYWrjQi4-60" value="" style="shape=tableRow;horizontal=0;startSize=0;swimlaneHead=0;swimlaneBody=0;fillColor=none;collapsible=0;dropTarget=0;points=[[0,0.5],[1,0.5]];portConstraint=eastwest;top=0;left=0;right=0;bottom=0;strokeColor=#8FA9FF;" vertex="1" parent="yiRNXyfWjRyLdYWrjQi4-47">
          <mxGeometry y="140" width="180" height="30" as="geometry" />
        </mxCell>
        <mxCell id="yiRNXyfWjRyLdYWrjQi4-61" value="" style="shape=partialRectangle;connectable=0;fillColor=none;top=0;left=0;bottom=0;right=0;editable=1;overflow=hidden;strokeColor=#8FA9FF;" vertex="1" parent="yiRNXyfWjRyLdYWrjQi4-60">
          <mxGeometry width="30" height="30" as="geometry">
            <mxRectangle width="30" height="30" as="alternateBounds" />
          </mxGeometry>
        </mxCell>
        <mxCell id="yiRNXyfWjRyLdYWrjQi4-62" value="address varchar" style="shape=partialRectangle;connectable=0;fillColor=none;top=0;left=0;bottom=0;right=0;align=left;spacingLeft=6;overflow=hidden;strokeColor=#8FA9FF;" vertex="1" parent="yiRNXyfWjRyLdYWrjQi4-60">
          <mxGeometry x="30" width="150" height="30" as="geometry">
            <mxRectangle width="150" height="30" as="alternateBounds" />
          </mxGeometry>
        </mxCell>
        <mxCell id="yiRNXyfWjRyLdYWrjQi4-63" value="Room" style="shape=table;startSize=40;container=1;collapsible=1;childLayout=tableLayout;fixedRows=1;rowLines=0;fontStyle=1;align=center;resizeLast=1;strokeColor=#8FA9FF;" vertex="1" parent="1">
          <mxGeometry x="-790" y="280" width="180" height="180" as="geometry" />
        </mxCell>
        <mxCell id="yiRNXyfWjRyLdYWrjQi4-64" value="" style="shape=tableRow;horizontal=0;startSize=0;swimlaneHead=0;swimlaneBody=0;fillColor=none;collapsible=0;dropTarget=0;points=[[0,0.5],[1,0.5]];portConstraint=eastwest;top=0;left=0;right=0;bottom=1;strokeColor=#8FA9FF;" vertex="1" parent="yiRNXyfWjRyLdYWrjQi4-63">
          <mxGeometry y="40" width="180" height="30" as="geometry" />
        </mxCell>
        <mxCell id="yiRNXyfWjRyLdYWrjQi4-65" value="PK" style="shape=partialRectangle;connectable=0;fillColor=none;top=0;left=0;bottom=0;right=0;fontStyle=1;overflow=hidden;strokeColor=#8FA9FF;" vertex="1" parent="yiRNXyfWjRyLdYWrjQi4-64">
          <mxGeometry width="30" height="30" as="geometry">
            <mxRectangle width="30" height="30" as="alternateBounds" />
          </mxGeometry>
        </mxCell>
        <mxCell id="yiRNXyfWjRyLdYWrjQi4-66" value="RNumber" style="shape=partialRectangle;connectable=0;fillColor=none;top=0;left=0;bottom=0;right=0;align=left;spacingLeft=6;fontStyle=5;overflow=hidden;strokeColor=#8FA9FF;" vertex="1" parent="yiRNXyfWjRyLdYWrjQi4-64">
          <mxGeometry x="30" width="150" height="30" as="geometry">
            <mxRectangle width="150" height="30" as="alternateBounds" />
          </mxGeometry>
        </mxCell>
        <mxCell id="yiRNXyfWjRyLdYWrjQi4-67" value="" style="shape=tableRow;horizontal=0;startSize=0;swimlaneHead=0;swimlaneBody=0;fillColor=none;collapsible=0;dropTarget=0;points=[[0,0.5],[1,0.5]];portConstraint=eastwest;top=0;left=0;right=0;bottom=0;strokeColor=#8FA9FF;" vertex="1" parent="yiRNXyfWjRyLdYWrjQi4-63">
          <mxGeometry y="70" width="180" height="20" as="geometry" />
        </mxCell>
        <mxCell id="yiRNXyfWjRyLdYWrjQi4-68" value="" style="shape=partialRectangle;connectable=0;fillColor=none;top=0;left=0;bottom=0;right=0;editable=1;overflow=hidden;strokeColor=#8FA9FF;" vertex="1" parent="yiRNXyfWjRyLdYWrjQi4-67">
          <mxGeometry width="30" height="20" as="geometry">
            <mxRectangle width="30" height="20" as="alternateBounds" />
          </mxGeometry>
        </mxCell>
        <mxCell id="yiRNXyfWjRyLdYWrjQi4-69" value="type         varchar" style="shape=partialRectangle;connectable=0;fillColor=none;top=0;left=0;bottom=0;right=0;align=left;spacingLeft=6;overflow=hidden;strokeColor=#8FA9FF;" vertex="1" parent="yiRNXyfWjRyLdYWrjQi4-67">
          <mxGeometry x="30" width="150" height="20" as="geometry">
            <mxRectangle width="150" height="20" as="alternateBounds" />
          </mxGeometry>
        </mxCell>
        <mxCell id="yiRNXyfWjRyLdYWrjQi4-70" value="" style="shape=tableRow;horizontal=0;startSize=0;swimlaneHead=0;swimlaneBody=0;fillColor=none;collapsible=0;dropTarget=0;points=[[0,0.5],[1,0.5]];portConstraint=eastwest;top=0;left=0;right=0;bottom=0;strokeColor=#8FA9FF;" vertex="1" parent="yiRNXyfWjRyLdYWrjQi4-63">
          <mxGeometry y="90" width="180" height="30" as="geometry" />
        </mxCell>
        <mxCell id="yiRNXyfWjRyLdYWrjQi4-71" value="" style="shape=partialRectangle;connectable=0;fillColor=none;top=0;left=0;bottom=0;right=0;editable=1;overflow=hidden;strokeColor=#8FA9FF;" vertex="1" parent="yiRNXyfWjRyLdYWrjQi4-70">
          <mxGeometry width="30" height="30" as="geometry">
            <mxRectangle width="30" height="30" as="alternateBounds" />
          </mxGeometry>
        </mxCell>
        <mxCell id="yiRNXyfWjRyLdYWrjQi4-72" value="capacity   int" style="shape=partialRectangle;connectable=0;fillColor=none;top=0;left=0;bottom=0;right=0;align=left;spacingLeft=6;overflow=hidden;strokeColor=#8FA9FF;" vertex="1" parent="yiRNXyfWjRyLdYWrjQi4-70">
          <mxGeometry x="30" width="150" height="30" as="geometry">
            <mxRectangle width="150" height="30" as="alternateBounds" />
          </mxGeometry>
        </mxCell>
        <mxCell id="yiRNXyfWjRyLdYWrjQi4-73" value="" style="shape=tableRow;horizontal=0;startSize=0;swimlaneHead=0;swimlaneBody=0;fillColor=none;collapsible=0;dropTarget=0;points=[[0,0.5],[1,0.5]];portConstraint=eastwest;top=0;left=0;right=0;bottom=0;strokeColor=#8FA9FF;" vertex="1" parent="yiRNXyfWjRyLdYWrjQi4-63">
          <mxGeometry y="120" width="180" height="30" as="geometry" />
        </mxCell>
        <mxCell id="yiRNXyfWjRyLdYWrjQi4-74" value="" style="shape=partialRectangle;connectable=0;fillColor=none;top=0;left=0;bottom=0;right=0;editable=1;overflow=hidden;strokeColor=#8FA9FF;" vertex="1" parent="yiRNXyfWjRyLdYWrjQi4-73">
          <mxGeometry width="30" height="30" as="geometry">
            <mxRectangle width="30" height="30" as="alternateBounds" />
          </mxGeometry>
        </mxCell>
        <mxCell id="yiRNXyfWjRyLdYWrjQi4-75" value="inCharge  varchar" style="shape=partialRectangle;connectable=0;fillColor=none;top=0;left=0;bottom=0;right=0;align=left;spacingLeft=6;overflow=hidden;strokeColor=#8FA9FF;" vertex="1" parent="yiRNXyfWjRyLdYWrjQi4-73">
          <mxGeometry x="30" width="150" height="30" as="geometry">
            <mxRectangle width="150" height="30" as="alternateBounds" />
          </mxGeometry>
        </mxCell>
        <mxCell id="yiRNXyfWjRyLdYWrjQi4-76" value="" style="edgeStyle=entityRelationEdgeStyle;fontSize=12;html=1;endArrow=ERzeroToMany;endFill=1;rounded=0;exitX=1.011;exitY=0.075;exitDx=0;exitDy=0;exitPerimeter=0;entryX=0;entryY=0.5;entryDx=0;entryDy=0;" edge="1" parent="1" source="yiRNXyfWjRyLdYWrjQi4-3" target="yiRNXyfWjRyLdYWrjQi4-51">
          <mxGeometry width="100" height="100" relative="1" as="geometry">
            <mxPoint x="-600" y="450" as="sourcePoint" />
            <mxPoint x="-500" y="350" as="targetPoint" />
          </mxGeometry>
        </mxCell>
        <mxCell id="yiRNXyfWjRyLdYWrjQi4-77" value="" style="edgeStyle=entityRelationEdgeStyle;fontSize=12;html=1;endArrow=ERzeroToMany;endFill=1;startArrow=ERzeroToMany;rounded=0;exitX=1.017;exitY=0.08;exitDx=0;exitDy=0;exitPerimeter=0;" edge="1" parent="1" source="yiRNXyfWjRyLdYWrjQi4-28" target="yiRNXyfWjRyLdYWrjQi4-47">
          <mxGeometry width="100" height="100" relative="1" as="geometry">
            <mxPoint x="-310" y="380" as="sourcePoint" />
            <mxPoint x="-210" y="280" as="targetPoint" />
          </mxGeometry>
        </mxCell>
        <mxCell id="yiRNXyfWjRyLdYWrjQi4-78" value="" style="edgeStyle=entityRelationEdgeStyle;fontSize=12;html=1;endArrow=ERzeroToOne;startArrow=ERmandOne;rounded=0;exitX=0.75;exitY=0;exitDx=0;exitDy=0;" edge="1" parent="1" source="yiRNXyfWjRyLdYWrjQi4-63" target="yiRNXyfWjRyLdYWrjQi4-54">
          <mxGeometry width="100" height="100" relative="1" as="geometry">
            <mxPoint x="-310" y="380" as="sourcePoint" />
            <mxPoint x="-210" y="280" as="targetPoint" />
          </mxGeometry>
        </mxCell>
        <mxCell id="yiRNXyfWjRyLdYWrjQi4-79" value="" style="edgeStyle=entityRelationEdgeStyle;fontSize=12;html=1;endArrow=ERzeroToOne;startArrow=ERmandOne;rounded=0;" edge="1" parent="1">
          <mxGeometry width="100" height="100" relative="1" as="geometry">
            <mxPoint x="-700" y="290" as="sourcePoint" />
            <mxPoint x="-670" y="240" as="targetPoint" />
          </mxGeometry>
        </mxCell>
        <mxCell id="yiRNXyfWjRyLdYWrjQi4-93" value="books" style="shape=table;startSize=30;container=1;collapsible=1;childLayout=tableLayout;fixedRows=1;rowLines=0;fontStyle=1;align=center;resizeLast=1;strokeColor=#8FA9FF;" vertex="1" parent="1">
          <mxGeometry x="-830" y="560" width="180" height="160" as="geometry" />
        </mxCell>
        <mxCell id="yiRNXyfWjRyLdYWrjQi4-94" value="" style="shape=tableRow;horizontal=0;startSize=0;swimlaneHead=0;swimlaneBody=0;fillColor=none;collapsible=0;dropTarget=0;points=[[0,0.5],[1,0.5]];portConstraint=eastwest;top=0;left=0;right=0;bottom=1;strokeColor=#8FA9FF;" vertex="1" parent="yiRNXyfWjRyLdYWrjQi4-93">
          <mxGeometry y="30" width="180" height="30" as="geometry" />
        </mxCell>
        <mxCell id="yiRNXyfWjRyLdYWrjQi4-95" value="PK" style="shape=partialRectangle;connectable=0;fillColor=none;top=0;left=0;bottom=0;right=0;fontStyle=1;overflow=hidden;strokeColor=#8FA9FF;" vertex="1" parent="yiRNXyfWjRyLdYWrjQi4-94">
          <mxGeometry width="30" height="30" as="geometry">
            <mxRectangle width="30" height="30" as="alternateBounds" />
          </mxGeometry>
        </mxCell>
        <mxCell id="yiRNXyfWjRyLdYWrjQi4-96" value="ISBN" style="shape=partialRectangle;connectable=0;fillColor=none;top=0;left=0;bottom=0;right=0;align=left;spacingLeft=6;fontStyle=5;overflow=hidden;strokeColor=#8FA9FF;" vertex="1" parent="yiRNXyfWjRyLdYWrjQi4-94">
          <mxGeometry x="30" width="150" height="30" as="geometry">
            <mxRectangle width="150" height="30" as="alternateBounds" />
          </mxGeometry>
        </mxCell>
        <mxCell id="yiRNXyfWjRyLdYWrjQi4-97" value="" style="shape=tableRow;horizontal=0;startSize=0;swimlaneHead=0;swimlaneBody=0;fillColor=none;collapsible=0;dropTarget=0;points=[[0,0.5],[1,0.5]];portConstraint=eastwest;top=0;left=0;right=0;bottom=0;strokeColor=#8FA9FF;" vertex="1" parent="yiRNXyfWjRyLdYWrjQi4-93">
          <mxGeometry y="60" width="180" height="30" as="geometry" />
        </mxCell>
        <mxCell id="yiRNXyfWjRyLdYWrjQi4-98" value="" style="shape=partialRectangle;connectable=0;fillColor=none;top=0;left=0;bottom=0;right=0;editable=1;overflow=hidden;strokeColor=#8FA9FF;" vertex="1" parent="yiRNXyfWjRyLdYWrjQi4-97">
          <mxGeometry width="30" height="30" as="geometry">
            <mxRectangle width="30" height="30" as="alternateBounds" />
          </mxGeometry>
        </mxCell>
        <mxCell id="yiRNXyfWjRyLdYWrjQi4-99" value="price    varchar" style="shape=partialRectangle;connectable=0;fillColor=none;top=0;left=0;bottom=0;right=0;align=left;spacingLeft=6;overflow=hidden;strokeColor=#8FA9FF;" vertex="1" parent="yiRNXyfWjRyLdYWrjQi4-97">
          <mxGeometry x="30" width="150" height="30" as="geometry">
            <mxRectangle width="150" height="30" as="alternateBounds" />
          </mxGeometry>
        </mxCell>
        <mxCell id="yiRNXyfWjRyLdYWrjQi4-100" value="" style="shape=tableRow;horizontal=0;startSize=0;swimlaneHead=0;swimlaneBody=0;fillColor=none;collapsible=0;dropTarget=0;points=[[0,0.5],[1,0.5]];portConstraint=eastwest;top=0;left=0;right=0;bottom=0;strokeColor=#8FA9FF;" vertex="1" parent="yiRNXyfWjRyLdYWrjQi4-93">
          <mxGeometry y="90" width="180" height="30" as="geometry" />
        </mxCell>
        <mxCell id="yiRNXyfWjRyLdYWrjQi4-101" value="" style="shape=partialRectangle;connectable=0;fillColor=none;top=0;left=0;bottom=0;right=0;editable=1;overflow=hidden;strokeColor=#8FA9FF;" vertex="1" parent="yiRNXyfWjRyLdYWrjQi4-100">
          <mxGeometry width="30" height="30" as="geometry">
            <mxRectangle width="30" height="30" as="alternateBounds" />
          </mxGeometry>
        </mxCell>
        <mxCell id="yiRNXyfWjRyLdYWrjQi4-102" value="title      varchar" style="shape=partialRectangle;connectable=0;fillColor=none;top=0;left=0;bottom=0;right=0;align=left;spacingLeft=6;overflow=hidden;strokeColor=#8FA9FF;" vertex="1" parent="yiRNXyfWjRyLdYWrjQi4-100">
          <mxGeometry x="30" width="150" height="30" as="geometry">
            <mxRectangle width="150" height="30" as="alternateBounds" />
          </mxGeometry>
        </mxCell>
        <mxCell id="yiRNXyfWjRyLdYWrjQi4-103" value="" style="shape=tableRow;horizontal=0;startSize=0;swimlaneHead=0;swimlaneBody=0;fillColor=none;collapsible=0;dropTarget=0;points=[[0,0.5],[1,0.5]];portConstraint=eastwest;top=0;left=0;right=0;bottom=0;strokeColor=#8FA9FF;" vertex="1" parent="yiRNXyfWjRyLdYWrjQi4-93">
          <mxGeometry y="120" width="180" height="30" as="geometry" />
        </mxCell>
        <mxCell id="yiRNXyfWjRyLdYWrjQi4-104" value="" style="shape=partialRectangle;connectable=0;fillColor=none;top=0;left=0;bottom=0;right=0;editable=1;overflow=hidden;strokeColor=#8FA9FF;" vertex="1" parent="yiRNXyfWjRyLdYWrjQi4-103">
          <mxGeometry width="30" height="30" as="geometry">
            <mxRectangle width="30" height="30" as="alternateBounds" />
          </mxGeometry>
        </mxCell>
        <mxCell id="yiRNXyfWjRyLdYWrjQi4-105" value="" style="shape=partialRectangle;connectable=0;fillColor=none;top=0;left=0;bottom=0;right=0;align=left;spacingLeft=6;overflow=hidden;strokeColor=#8FA9FF;" vertex="1" parent="yiRNXyfWjRyLdYWrjQi4-103">
          <mxGeometry x="30" width="150" height="30" as="geometry">
            <mxRectangle width="150" height="30" as="alternateBounds" />
          </mxGeometry>
        </mxCell>
        <mxCell id="yiRNXyfWjRyLdYWrjQi4-106" value="Author" style="shape=table;startSize=30;container=1;collapsible=1;childLayout=tableLayout;fixedRows=1;rowLines=0;fontStyle=1;align=center;resizeLast=1;strokeColor=#8FA9FF;" vertex="1" parent="1">
          <mxGeometry x="-520" y="565" width="190" height="145" as="geometry" />
        </mxCell>
        <mxCell id="yiRNXyfWjRyLdYWrjQi4-107" value="" style="shape=tableRow;horizontal=0;startSize=0;swimlaneHead=0;swimlaneBody=0;fillColor=none;collapsible=0;dropTarget=0;points=[[0,0.5],[1,0.5]];portConstraint=eastwest;top=0;left=0;right=0;bottom=1;strokeColor=#8FA9FF;" vertex="1" parent="yiRNXyfWjRyLdYWrjQi4-106">
          <mxGeometry y="30" width="190" height="30" as="geometry" />
        </mxCell>
        <mxCell id="yiRNXyfWjRyLdYWrjQi4-108" value="PK" style="shape=partialRectangle;connectable=0;fillColor=none;top=0;left=0;bottom=0;right=0;fontStyle=1;overflow=hidden;strokeColor=#8FA9FF;" vertex="1" parent="yiRNXyfWjRyLdYWrjQi4-107">
          <mxGeometry width="30" height="30" as="geometry">
            <mxRectangle width="30" height="30" as="alternateBounds" />
          </mxGeometry>
        </mxCell>
        <mxCell id="yiRNXyfWjRyLdYWrjQi4-109" value="AuId" style="shape=partialRectangle;connectable=0;fillColor=none;top=0;left=0;bottom=0;right=0;align=left;spacingLeft=6;fontStyle=5;overflow=hidden;strokeColor=#8FA9FF;" vertex="1" parent="yiRNXyfWjRyLdYWrjQi4-107">
          <mxGeometry x="30" width="160" height="30" as="geometry">
            <mxRectangle width="160" height="30" as="alternateBounds" />
          </mxGeometry>
        </mxCell>
        <mxCell id="yiRNXyfWjRyLdYWrjQi4-110" value="" style="shape=tableRow;horizontal=0;startSize=0;swimlaneHead=0;swimlaneBody=0;fillColor=none;collapsible=0;dropTarget=0;points=[[0,0.5],[1,0.5]];portConstraint=eastwest;top=0;left=0;right=0;bottom=0;strokeColor=#8FA9FF;" vertex="1" parent="yiRNXyfWjRyLdYWrjQi4-106">
          <mxGeometry y="60" width="190" height="30" as="geometry" />
        </mxCell>
        <mxCell id="yiRNXyfWjRyLdYWrjQi4-111" value="" style="shape=partialRectangle;connectable=0;fillColor=none;top=0;left=0;bottom=0;right=0;editable=1;overflow=hidden;strokeColor=#8FA9FF;" vertex="1" parent="yiRNXyfWjRyLdYWrjQi4-110">
          <mxGeometry width="30" height="30" as="geometry">
            <mxRectangle width="30" height="30" as="alternateBounds" />
          </mxGeometry>
        </mxCell>
        <mxCell id="yiRNXyfWjRyLdYWrjQi4-112" value="AuName    varchar" style="shape=partialRectangle;connectable=0;fillColor=none;top=0;left=0;bottom=0;right=0;align=left;spacingLeft=6;overflow=hidden;strokeColor=#8FA9FF;" vertex="1" parent="yiRNXyfWjRyLdYWrjQi4-110">
          <mxGeometry x="30" width="160" height="30" as="geometry">
            <mxRectangle width="160" height="30" as="alternateBounds" />
          </mxGeometry>
        </mxCell>
        <mxCell id="yiRNXyfWjRyLdYWrjQi4-113" value="" style="shape=tableRow;horizontal=0;startSize=0;swimlaneHead=0;swimlaneBody=0;fillColor=none;collapsible=0;dropTarget=0;points=[[0,0.5],[1,0.5]];portConstraint=eastwest;top=0;left=0;right=0;bottom=0;strokeColor=#8FA9FF;" vertex="1" parent="yiRNXyfWjRyLdYWrjQi4-106">
          <mxGeometry y="90" width="190" height="30" as="geometry" />
        </mxCell>
        <mxCell id="yiRNXyfWjRyLdYWrjQi4-114" value="" style="shape=partialRectangle;connectable=0;fillColor=none;top=0;left=0;bottom=0;right=0;editable=1;overflow=hidden;strokeColor=#8FA9FF;" vertex="1" parent="yiRNXyfWjRyLdYWrjQi4-113">
          <mxGeometry width="30" height="30" as="geometry">
            <mxRectangle width="30" height="30" as="alternateBounds" />
          </mxGeometry>
        </mxCell>
        <mxCell id="yiRNXyfWjRyLdYWrjQi4-115" value="AuTel        varchar" style="shape=partialRectangle;connectable=0;fillColor=none;top=0;left=0;bottom=0;right=0;align=left;spacingLeft=6;overflow=hidden;strokeColor=#8FA9FF;" vertex="1" parent="yiRNXyfWjRyLdYWrjQi4-113">
          <mxGeometry x="30" width="160" height="30" as="geometry">
            <mxRectangle width="160" height="30" as="alternateBounds" />
          </mxGeometry>
        </mxCell>
        <mxCell id="yiRNXyfWjRyLdYWrjQi4-116" value="" style="shape=tableRow;horizontal=0;startSize=0;swimlaneHead=0;swimlaneBody=0;fillColor=none;collapsible=0;dropTarget=0;points=[[0,0.5],[1,0.5]];portConstraint=eastwest;top=0;left=0;right=0;bottom=0;strokeColor=#8FA9FF;" vertex="1" parent="yiRNXyfWjRyLdYWrjQi4-106">
          <mxGeometry y="120" width="190" height="20" as="geometry" />
        </mxCell>
        <mxCell id="yiRNXyfWjRyLdYWrjQi4-117" value="" style="shape=partialRectangle;connectable=0;fillColor=none;top=0;left=0;bottom=0;right=0;editable=1;overflow=hidden;strokeColor=#8FA9FF;" vertex="1" parent="yiRNXyfWjRyLdYWrjQi4-116">
          <mxGeometry width="30" height="20" as="geometry">
            <mxRectangle width="30" height="20" as="alternateBounds" />
          </mxGeometry>
        </mxCell>
        <mxCell id="yiRNXyfWjRyLdYWrjQi4-118" value="" style="shape=partialRectangle;connectable=0;fillColor=none;top=0;left=0;bottom=0;right=0;align=left;spacingLeft=6;overflow=hidden;strokeColor=#8FA9FF;" vertex="1" parent="yiRNXyfWjRyLdYWrjQi4-116">
          <mxGeometry x="30" width="160" height="20" as="geometry">
            <mxRectangle width="160" height="20" as="alternateBounds" />
          </mxGeometry>
        </mxCell>
        <mxCell id="yiRNXyfWjRyLdYWrjQi4-119" value="Publisher" style="shape=table;startSize=30;container=1;collapsible=1;childLayout=tableLayout;fixedRows=1;rowLines=0;fontStyle=1;align=center;resizeLast=1;strokeColor=#8FA9FF;" vertex="1" parent="1">
          <mxGeometry x="-790" y="920" width="180" height="160" as="geometry" />
        </mxCell>
        <mxCell id="yiRNXyfWjRyLdYWrjQi4-120" value="" style="shape=tableRow;horizontal=0;startSize=0;swimlaneHead=0;swimlaneBody=0;fillColor=none;collapsible=0;dropTarget=0;points=[[0,0.5],[1,0.5]];portConstraint=eastwest;top=0;left=0;right=0;bottom=1;strokeColor=#8FA9FF;" vertex="1" parent="yiRNXyfWjRyLdYWrjQi4-119">
          <mxGeometry y="30" width="180" height="30" as="geometry" />
        </mxCell>
        <mxCell id="yiRNXyfWjRyLdYWrjQi4-121" value="PK" style="shape=partialRectangle;connectable=0;fillColor=none;top=0;left=0;bottom=0;right=0;fontStyle=1;overflow=hidden;strokeColor=#8FA9FF;" vertex="1" parent="yiRNXyfWjRyLdYWrjQi4-120">
          <mxGeometry width="30" height="30" as="geometry">
            <mxRectangle width="30" height="30" as="alternateBounds" />
          </mxGeometry>
        </mxCell>
        <mxCell id="yiRNXyfWjRyLdYWrjQi4-122" value="pubId" style="shape=partialRectangle;connectable=0;fillColor=none;top=0;left=0;bottom=0;right=0;align=left;spacingLeft=6;fontStyle=5;overflow=hidden;strokeColor=#8FA9FF;" vertex="1" parent="yiRNXyfWjRyLdYWrjQi4-120">
          <mxGeometry x="30" width="150" height="30" as="geometry">
            <mxRectangle width="150" height="30" as="alternateBounds" />
          </mxGeometry>
        </mxCell>
        <mxCell id="yiRNXyfWjRyLdYWrjQi4-123" value="" style="shape=tableRow;horizontal=0;startSize=0;swimlaneHead=0;swimlaneBody=0;fillColor=none;collapsible=0;dropTarget=0;points=[[0,0.5],[1,0.5]];portConstraint=eastwest;top=0;left=0;right=0;bottom=0;strokeColor=#8FA9FF;" vertex="1" parent="yiRNXyfWjRyLdYWrjQi4-119">
          <mxGeometry y="60" width="180" height="30" as="geometry" />
        </mxCell>
        <mxCell id="yiRNXyfWjRyLdYWrjQi4-124" value="" style="shape=partialRectangle;connectable=0;fillColor=none;top=0;left=0;bottom=0;right=0;editable=1;overflow=hidden;strokeColor=#8FA9FF;" vertex="1" parent="yiRNXyfWjRyLdYWrjQi4-123">
          <mxGeometry width="30" height="30" as="geometry">
            <mxRectangle width="30" height="30" as="alternateBounds" />
          </mxGeometry>
        </mxCell>
        <mxCell id="yiRNXyfWjRyLdYWrjQi4-125" value="PubTel        varchar" style="shape=partialRectangle;connectable=0;fillColor=none;top=0;left=0;bottom=0;right=0;align=left;spacingLeft=6;overflow=hidden;strokeColor=#8FA9FF;" vertex="1" parent="yiRNXyfWjRyLdYWrjQi4-123">
          <mxGeometry x="30" width="150" height="30" as="geometry">
            <mxRectangle width="150" height="30" as="alternateBounds" />
          </mxGeometry>
        </mxCell>
        <mxCell id="yiRNXyfWjRyLdYWrjQi4-126" value="" style="shape=tableRow;horizontal=0;startSize=0;swimlaneHead=0;swimlaneBody=0;fillColor=none;collapsible=0;dropTarget=0;points=[[0,0.5],[1,0.5]];portConstraint=eastwest;top=0;left=0;right=0;bottom=0;strokeColor=#8FA9FF;" vertex="1" parent="yiRNXyfWjRyLdYWrjQi4-119">
          <mxGeometry y="90" width="180" height="30" as="geometry" />
        </mxCell>
        <mxCell id="yiRNXyfWjRyLdYWrjQi4-127" value="" style="shape=partialRectangle;connectable=0;fillColor=none;top=0;left=0;bottom=0;right=0;editable=1;overflow=hidden;strokeColor=#8FA9FF;" vertex="1" parent="yiRNXyfWjRyLdYWrjQi4-126">
          <mxGeometry width="30" height="30" as="geometry">
            <mxRectangle width="30" height="30" as="alternateBounds" />
          </mxGeometry>
        </mxCell>
        <mxCell id="yiRNXyfWjRyLdYWrjQi4-128" value="PubName   varchar" style="shape=partialRectangle;connectable=0;fillColor=none;top=0;left=0;bottom=0;right=0;align=left;spacingLeft=6;overflow=hidden;strokeColor=#8FA9FF;" vertex="1" parent="yiRNXyfWjRyLdYWrjQi4-126">
          <mxGeometry x="30" width="150" height="30" as="geometry">
            <mxRectangle width="150" height="30" as="alternateBounds" />
          </mxGeometry>
        </mxCell>
        <mxCell id="yiRNXyfWjRyLdYWrjQi4-129" value="" style="shape=tableRow;horizontal=0;startSize=0;swimlaneHead=0;swimlaneBody=0;fillColor=none;collapsible=0;dropTarget=0;points=[[0,0.5],[1,0.5]];portConstraint=eastwest;top=0;left=0;right=0;bottom=0;strokeColor=#8FA9FF;" vertex="1" parent="yiRNXyfWjRyLdYWrjQi4-119">
          <mxGeometry y="120" width="180" height="30" as="geometry" />
        </mxCell>
        <mxCell id="yiRNXyfWjRyLdYWrjQi4-130" value="" style="shape=partialRectangle;connectable=0;fillColor=none;top=0;left=0;bottom=0;right=0;editable=1;overflow=hidden;strokeColor=#8FA9FF;" vertex="1" parent="yiRNXyfWjRyLdYWrjQi4-129">
          <mxGeometry width="30" height="30" as="geometry">
            <mxRectangle width="30" height="30" as="alternateBounds" />
          </mxGeometry>
        </mxCell>
        <mxCell id="yiRNXyfWjRyLdYWrjQi4-131" value="" style="shape=partialRectangle;connectable=0;fillColor=none;top=0;left=0;bottom=0;right=0;align=left;spacingLeft=6;overflow=hidden;strokeColor=#8FA9FF;" vertex="1" parent="yiRNXyfWjRyLdYWrjQi4-129">
          <mxGeometry x="30" width="150" height="30" as="geometry">
            <mxRectangle width="150" height="30" as="alternateBounds" />
          </mxGeometry>
        </mxCell>
        <mxCell id="yiRNXyfWjRyLdYWrjQi4-132" value="Coauthors" style="shape=table;startSize=30;container=1;collapsible=1;childLayout=tableLayout;fixedRows=1;rowLines=0;fontStyle=1;align=center;resizeLast=1;strokeColor=#8FA9FF;" vertex="1" parent="1">
          <mxGeometry x="-520" y="920" width="190" height="160" as="geometry" />
        </mxCell>
        <mxCell id="yiRNXyfWjRyLdYWrjQi4-133" value="" style="shape=tableRow;horizontal=0;startSize=0;swimlaneHead=0;swimlaneBody=0;fillColor=none;collapsible=0;dropTarget=0;points=[[0,0.5],[1,0.5]];portConstraint=eastwest;top=0;left=0;right=0;bottom=1;strokeColor=#8FA9FF;" vertex="1" parent="yiRNXyfWjRyLdYWrjQi4-132">
          <mxGeometry y="30" width="190" height="30" as="geometry" />
        </mxCell>
        <mxCell id="yiRNXyfWjRyLdYWrjQi4-134" value="PK" style="shape=partialRectangle;connectable=0;fillColor=none;top=0;left=0;bottom=0;right=0;fontStyle=1;overflow=hidden;strokeColor=#8FA9FF;" vertex="1" parent="yiRNXyfWjRyLdYWrjQi4-133">
          <mxGeometry width="30" height="30" as="geometry">
            <mxRectangle width="30" height="30" as="alternateBounds" />
          </mxGeometry>
        </mxCell>
        <mxCell id="yiRNXyfWjRyLdYWrjQi4-135" value="coauId" style="shape=partialRectangle;connectable=0;fillColor=none;top=0;left=0;bottom=0;right=0;align=left;spacingLeft=6;fontStyle=5;overflow=hidden;strokeColor=#8FA9FF;" vertex="1" parent="yiRNXyfWjRyLdYWrjQi4-133">
          <mxGeometry x="30" width="160" height="30" as="geometry">
            <mxRectangle width="160" height="30" as="alternateBounds" />
          </mxGeometry>
        </mxCell>
        <mxCell id="yiRNXyfWjRyLdYWrjQi4-136" value="" style="shape=tableRow;horizontal=0;startSize=0;swimlaneHead=0;swimlaneBody=0;fillColor=none;collapsible=0;dropTarget=0;points=[[0,0.5],[1,0.5]];portConstraint=eastwest;top=0;left=0;right=0;bottom=0;strokeColor=#8FA9FF;" vertex="1" parent="yiRNXyfWjRyLdYWrjQi4-132">
          <mxGeometry y="60" width="190" height="30" as="geometry" />
        </mxCell>
        <mxCell id="yiRNXyfWjRyLdYWrjQi4-137" value="" style="shape=partialRectangle;connectable=0;fillColor=none;top=0;left=0;bottom=0;right=0;editable=1;overflow=hidden;strokeColor=#8FA9FF;" vertex="1" parent="yiRNXyfWjRyLdYWrjQi4-136">
          <mxGeometry width="30" height="30" as="geometry">
            <mxRectangle width="30" height="30" as="alternateBounds" />
          </mxGeometry>
        </mxCell>
        <mxCell id="yiRNXyfWjRyLdYWrjQi4-138" value="couTel        varchar" style="shape=partialRectangle;connectable=0;fillColor=none;top=0;left=0;bottom=0;right=0;align=left;spacingLeft=6;overflow=hidden;strokeColor=#8FA9FF;" vertex="1" parent="yiRNXyfWjRyLdYWrjQi4-136">
          <mxGeometry x="30" width="160" height="30" as="geometry">
            <mxRectangle width="160" height="30" as="alternateBounds" />
          </mxGeometry>
        </mxCell>
        <mxCell id="yiRNXyfWjRyLdYWrjQi4-139" value="" style="shape=tableRow;horizontal=0;startSize=0;swimlaneHead=0;swimlaneBody=0;fillColor=none;collapsible=0;dropTarget=0;points=[[0,0.5],[1,0.5]];portConstraint=eastwest;top=0;left=0;right=0;bottom=0;strokeColor=#8FA9FF;" vertex="1" parent="yiRNXyfWjRyLdYWrjQi4-132">
          <mxGeometry y="90" width="190" height="30" as="geometry" />
        </mxCell>
        <mxCell id="yiRNXyfWjRyLdYWrjQi4-140" value="" style="shape=partialRectangle;connectable=0;fillColor=none;top=0;left=0;bottom=0;right=0;editable=1;overflow=hidden;strokeColor=#8FA9FF;" vertex="1" parent="yiRNXyfWjRyLdYWrjQi4-139">
          <mxGeometry width="30" height="30" as="geometry">
            <mxRectangle width="30" height="30" as="alternateBounds" />
          </mxGeometry>
        </mxCell>
        <mxCell id="yiRNXyfWjRyLdYWrjQi4-141" value="CouName   varchar" style="shape=partialRectangle;connectable=0;fillColor=none;top=0;left=0;bottom=0;right=0;align=left;spacingLeft=6;overflow=hidden;strokeColor=#8FA9FF;" vertex="1" parent="yiRNXyfWjRyLdYWrjQi4-139">
          <mxGeometry x="30" width="160" height="30" as="geometry">
            <mxRectangle width="160" height="30" as="alternateBounds" />
          </mxGeometry>
        </mxCell>
        <mxCell id="yiRNXyfWjRyLdYWrjQi4-142" value="" style="shape=tableRow;horizontal=0;startSize=0;swimlaneHead=0;swimlaneBody=0;fillColor=none;collapsible=0;dropTarget=0;points=[[0,0.5],[1,0.5]];portConstraint=eastwest;top=0;left=0;right=0;bottom=0;strokeColor=#8FA9FF;" vertex="1" parent="yiRNXyfWjRyLdYWrjQi4-132">
          <mxGeometry y="120" width="190" height="30" as="geometry" />
        </mxCell>
        <mxCell id="yiRNXyfWjRyLdYWrjQi4-143" value="" style="shape=partialRectangle;connectable=0;fillColor=none;top=0;left=0;bottom=0;right=0;editable=1;overflow=hidden;strokeColor=#8FA9FF;" vertex="1" parent="yiRNXyfWjRyLdYWrjQi4-142">
          <mxGeometry width="30" height="30" as="geometry">
            <mxRectangle width="30" height="30" as="alternateBounds" />
          </mxGeometry>
        </mxCell>
        <mxCell id="yiRNXyfWjRyLdYWrjQi4-144" value="" style="shape=partialRectangle;connectable=0;fillColor=none;top=0;left=0;bottom=0;right=0;align=left;spacingLeft=6;overflow=hidden;strokeColor=#8FA9FF;" vertex="1" parent="yiRNXyfWjRyLdYWrjQi4-142">
          <mxGeometry x="30" width="160" height="30" as="geometry">
            <mxRectangle width="160" height="30" as="alternateBounds" />
          </mxGeometry>
        </mxCell>
        <mxCell id="yiRNXyfWjRyLdYWrjQi4-146" value="" style="edgeStyle=entityRelationEdgeStyle;fontSize=12;html=1;endArrow=ERzeroToMany;endFill=1;startArrow=ERzeroToMany;rounded=0;" edge="1" parent="1" source="yiRNXyfWjRyLdYWrjQi4-106" target="yiRNXyfWjRyLdYWrjQi4-97">
          <mxGeometry width="100" height="100" relative="1" as="geometry">
            <mxPoint x="-780" y="910" as="sourcePoint" />
            <mxPoint x="-730" y="780" as="targetPoint" />
          </mxGeometry>
        </mxCell>
        <mxCell id="yiRNXyfWjRyLdYWrjQi4-147" value="" style="edgeStyle=entityRelationEdgeStyle;fontSize=12;html=1;endArrow=ERzeroToMany;endFill=1;rounded=0;exitX=0.186;exitY=-0.013;exitDx=0;exitDy=0;exitPerimeter=0;" edge="1" parent="1" source="yiRNXyfWjRyLdYWrjQi4-119">
          <mxGeometry width="100" height="100" relative="1" as="geometry">
            <mxPoint x="-330" y="900" as="sourcePoint" />
            <mxPoint x="-720" y="720" as="targetPoint" />
          </mxGeometry>
        </mxCell>
        <mxCell id="yiRNXyfWjRyLdYWrjQi4-148" value="" style="edgeStyle=entityRelationEdgeStyle;fontSize=12;html=1;endArrow=ERzeroToOne;startArrow=ERmandOne;rounded=0;exitX=0.345;exitY=-0.016;exitDx=0;exitDy=0;exitPerimeter=0;" edge="1" parent="1" source="yiRNXyfWjRyLdYWrjQi4-132" target="yiRNXyfWjRyLdYWrjQi4-116">
          <mxGeometry width="100" height="100" relative="1" as="geometry">
            <mxPoint x="-330" y="940" as="sourcePoint" />
            <mxPoint x="-170" y="720" as="targetPoint" />
          </mxGeometry>
        </mxCell>
      </root>
    </mxGraphModel>
  </diagram>
</mxfile>
